<!-- Generated by IcoMoon.io -->
<svg version="1.1" xmlns="http://www.w3.org/2000/svg" width="69" height="32" viewBox="0 0 69 32">
<title>Logotype</title>
<path d="M3.070 0l2.538 8.359h0.094l2.538-8.359h3.070l-3.829 11.413h-3.651l-3.829-11.413h3.070z"></path>
<path d="M15.482 11.575c-0.894 0-1.662-0.184-2.305-0.552-0.639-0.372-1.132-0.888-1.479-1.549-0.344-0.665-0.515-1.436-0.515-2.313 0-0.88 0.172-1.651 0.515-2.313 0.347-0.665 0.84-1.181 1.479-1.549 0.643-0.372 1.411-0.557 2.305-0.557s1.66 0.186 2.299 0.557c0.643 0.368 1.136 0.884 1.479 1.549 0.347 0.661 0.521 1.432 0.521 2.313 0 0.877-0.174 1.648-0.521 2.313-0.343 0.661-0.837 1.178-1.479 1.549-0.639 0.368-1.405 0.552-2.299 0.552zM15.499 9.518c0.325 0 0.6-0.1 0.826-0.301s0.397-0.479 0.515-0.836c0.122-0.357 0.183-0.769 0.183-1.237 0-0.476-0.061-0.892-0.183-1.248-0.118-0.357-0.29-0.635-0.515-0.836s-0.501-0.301-0.826-0.301c-0.336 0-0.621 0.1-0.853 0.301-0.229 0.201-0.404 0.479-0.526 0.836-0.118 0.357-0.177 0.773-0.177 1.248 0 0.468 0.059 0.88 0.177 1.237 0.122 0.357 0.297 0.635 0.526 0.836 0.233 0.201 0.517 0.301 0.853 0.301z"></path>
<path d="M25.143 11.575c-0.894 0-1.662-0.184-2.305-0.552-0.639-0.372-1.132-0.888-1.479-1.549-0.344-0.665-0.515-1.436-0.515-2.313 0-0.88 0.172-1.651 0.515-2.313 0.347-0.665 0.84-1.181 1.479-1.549 0.643-0.372 1.411-0.557 2.305-0.557s1.66 0.186 2.299 0.557c0.643 0.368 1.136 0.884 1.479 1.549 0.347 0.661 0.521 1.432 0.521 2.313 0 0.877-0.174 1.648-0.521 2.313-0.343 0.661-0.837 1.178-1.479 1.549-0.639 0.368-1.405 0.552-2.299 0.552zM25.159 9.518c0.325 0 0.6-0.1 0.826-0.301s0.397-0.479 0.515-0.836c0.122-0.357 0.183-0.769 0.183-1.237 0-0.476-0.061-0.892-0.183-1.248-0.118-0.357-0.29-0.635-0.515-0.836s-0.501-0.301-0.826-0.301c-0.336 0-0.621 0.1-0.853 0.301-0.229 0.201-0.404 0.479-0.526 0.836-0.118 0.357-0.177 0.773-0.177 1.248 0 0.468 0.059 0.88 0.177 1.237 0.122 0.357 0.297 0.635 0.526 0.836 0.233 0.201 0.517 0.301 0.853 0.301z"></path>
<path d="M35.024 11.413h-4.194v-11.413h4.189c1.156 0 2.152 0.228 2.986 0.685 0.839 0.453 1.485 1.107 1.939 1.962 0.454 0.851 0.682 1.869 0.682 3.054 0 1.189-0.227 2.211-0.682 3.065-0.451 0.855-1.095 1.51-1.934 1.967-0.839 0.453-1.834 0.68-2.986 0.68zM33.573 9.061h1.346c0.635 0 1.173-0.108 1.612-0.323 0.443-0.219 0.778-0.574 1.003-1.064 0.229-0.494 0.343-1.152 0.343-1.973s-0.114-1.475-0.343-1.962c-0.229-0.49-0.567-0.843-1.014-1.059-0.443-0.219-0.99-0.329-1.64-0.329h-1.308v6.71z"></path>
<path d="M46.2 11.575c-0.894 0-1.662-0.184-2.305-0.552-0.639-0.372-1.132-0.888-1.479-1.549-0.343-0.665-0.515-1.436-0.515-2.313 0-0.88 0.172-1.651 0.515-2.313 0.347-0.665 0.84-1.181 1.479-1.549 0.643-0.372 1.411-0.557 2.305-0.557s1.66 0.186 2.299 0.557c0.643 0.368 1.136 0.884 1.479 1.549 0.347 0.661 0.521 1.432 0.521 2.313 0 0.877-0.174 1.648-0.521 2.313-0.343 0.661-0.837 1.178-1.479 1.549-0.639 0.368-1.405 0.552-2.299 0.552zM46.217 9.518c0.325 0 0.6-0.1 0.826-0.301s0.397-0.479 0.515-0.836c0.122-0.357 0.183-0.769 0.183-1.237 0-0.476-0.061-0.892-0.183-1.248-0.118-0.357-0.29-0.635-0.515-0.836s-0.501-0.301-0.826-0.301c-0.336 0-0.621 0.1-0.853 0.301-0.229 0.201-0.404 0.479-0.526 0.836-0.118 0.357-0.177 0.773-0.177 1.248 0 0.468 0.059 0.88 0.177 1.237 0.122 0.357 0.297 0.635 0.526 0.836 0.233 0.201 0.517 0.301 0.853 0.301z"></path>
<path d="M55.86 11.575c-0.894 0-1.662-0.184-2.305-0.552-0.639-0.372-1.132-0.888-1.479-1.549-0.343-0.665-0.515-1.436-0.515-2.313 0-0.88 0.172-1.651 0.515-2.313 0.347-0.665 0.84-1.181 1.479-1.549 0.643-0.372 1.411-0.557 2.305-0.557s1.66 0.186 2.299 0.557c0.643 0.368 1.136 0.884 1.479 1.549 0.347 0.661 0.521 1.432 0.521 2.313 0 0.877-0.174 1.648-0.521 2.313-0.344 0.661-0.837 1.178-1.479 1.549-0.639 0.368-1.405 0.552-2.299 0.552zM55.877 9.518c0.325 0 0.6-0.1 0.826-0.301s0.397-0.479 0.515-0.836c0.122-0.357 0.183-0.769 0.183-1.237 0-0.476-0.061-0.892-0.183-1.248-0.118-0.357-0.29-0.635-0.515-0.836s-0.501-0.301-0.826-0.301c-0.336 0-0.621 0.1-0.853 0.301-0.229 0.201-0.404 0.479-0.526 0.836-0.118 0.357-0.177 0.773-0.177 1.248 0 0.468 0.059 0.88 0.177 1.237 0.122 0.357 0.297 0.635 0.526 0.836 0.233 0.201 0.517 0.301 0.853 0.301z"></path>
<path d="M0.122 21.386v-2.24h9.591v2.24h-3.441v9.173h-2.704v-9.173h-3.446z"></path>
<path d="M13.796 30.72c-0.89 0-1.659-0.176-2.305-0.529-0.643-0.357-1.138-0.864-1.485-1.521-0.344-0.661-0.515-1.447-0.515-2.357 0-0.884 0.174-1.657 0.521-2.318 0.347-0.665 0.837-1.181 1.468-1.549 0.632-0.372 1.376-0.557 2.233-0.557 0.606 0 1.16 0.095 1.662 0.284s0.936 0.47 1.302 0.841 0.65 0.83 0.853 1.376c0.203 0.542 0.305 1.165 0.305 1.867v0.68h-7.397v-1.583h4.876c-0.004-0.29-0.072-0.548-0.205-0.775s-0.316-0.403-0.549-0.529c-0.229-0.13-0.493-0.195-0.792-0.195-0.303 0-0.574 0.069-0.815 0.206-0.24 0.134-0.43 0.318-0.571 0.552-0.14 0.23-0.214 0.492-0.222 0.786v1.611c0 0.349 0.068 0.656 0.205 0.92 0.137 0.26 0.331 0.463 0.582 0.607s0.55 0.217 0.898 0.217c0.24 0 0.458-0.033 0.654-0.1s0.364-0.165 0.504-0.295c0.14-0.13 0.246-0.29 0.316-0.479l2.488 0.072c-0.103 0.561-0.331 1.050-0.681 1.466-0.347 0.412-0.803 0.734-1.369 0.964-0.565 0.227-1.219 0.34-1.961 0.34z"></path>
<path d="M26.65 24.612l-2.488 0.067c-0.026-0.178-0.096-0.336-0.211-0.474-0.114-0.141-0.264-0.251-0.449-0.329-0.181-0.082-0.392-0.123-0.632-0.123-0.314 0-0.582 0.063-0.803 0.189-0.218 0.126-0.325 0.297-0.321 0.513-0.004 0.167 0.063 0.312 0.199 0.435 0.14 0.123 0.39 0.221 0.748 0.295l1.64 0.312c0.85 0.163 1.481 0.435 1.895 0.814 0.417 0.379 0.628 0.881 0.632 1.505-0.004 0.587-0.177 1.098-0.521 1.533-0.34 0.435-0.805 0.773-1.396 1.014-0.591 0.238-1.267 0.357-2.028 0.357-1.215 0-2.174-0.251-2.876-0.752-0.698-0.505-1.097-1.181-1.197-2.028l2.676-0.067c0.059 0.312 0.212 0.55 0.46 0.713s0.563 0.245 0.947 0.245c0.347 0 0.63-0.065 0.848-0.195s0.329-0.303 0.332-0.518c-0.004-0.193-0.089-0.347-0.255-0.463-0.166-0.119-0.427-0.212-0.781-0.279l-1.485-0.284c-0.853-0.156-1.489-0.444-1.906-0.864-0.417-0.424-0.624-0.962-0.621-1.616-0.004-0.572 0.148-1.061 0.454-1.466 0.307-0.409 0.742-0.721 1.308-0.936s1.232-0.323 2-0.323c1.152 0 2.061 0.243 2.726 0.73 0.665 0.483 1.032 1.148 1.103 1.995z"></path>
<path d="M32.998 21.999v2.006h-5.369v-2.006h5.369zM28.754 19.948h2.709v7.919c0 0.167 0.026 0.303 0.078 0.407 0.055 0.1 0.135 0.173 0.238 0.217 0.103 0.041 0.227 0.061 0.371 0.061 0.103 0 0.212-0.009 0.327-0.028 0.118-0.022 0.207-0.041 0.266-0.056l0.41 1.967c-0.129 0.037-0.312 0.084-0.549 0.139-0.233 0.056-0.512 0.091-0.837 0.106-0.635 0.030-1.18-0.045-1.635-0.223-0.451-0.182-0.796-0.464-1.036-0.847-0.236-0.383-0.351-0.864-0.344-1.443v-8.22z"></path>
</svg>
